<svg xmlns="http://www.w3.org/2000/svg" viewBox="0 0 100 100" preserveAspectRatio="xMidYMid" width="100" height="100" xmlns:xlink="http://www.w3.org/1999/xlink" style="shape-rendering:auto;display:block;background-position-x:0%;background-position-y:0%;background-size:auto;background-origin:padding-box;background-clip:border-box;background:scroll none  repeat;width:200px;height:200px;;animation:none"><g><g><circle fill="#241718" r="4" cy="50" cx="54.79999923706055" fill-opacity="1" style="fill:rgb(36, 23, 24);;animation:none"></circle>

  
<circle fill="#241718" r="4" cy="50" cx="75.19999694824219" fill-opacity="1" style="fill:rgb(36, 23, 24);;animation:none"></circle>

  
<circle fill="#241718" r="4" cy="50" cx="95" fill-opacity="0" style="fill:rgb(36, 23, 24);;animation:none"></circle></g>
<g transform="matrix(1,0,0,1,-15,0)" style="transform:matrix(1, 0, 0, 1, -15, 0);;animation:none"><path transform="matrix(6.123233995736766e-17,1,-1,6.123233995736766e-17,100,0)" fill="#814884" d="M50 50L20 50A30 30 0 0 0 80 50Z" style="fill:rgb(129, 72, 132);transform:matrix(0, 1, -1, 0, 100, 0);;animation:none"></path>

  
<path fill="#814884" d="M50 50L20 50A30 30 0 0 0 80 50Z" transform="matrix(1,0,0,1,0,0)" style="fill:rgb(129, 72, 132);transform:matrix(1, 0, 0, 1, 0, 0);;animation:none"></path>

  
<path fill="#814884" d="M50 50L20 50A30 30 0 0 1 80 50Z" transform="matrix(1,0,0,1,0,0)" style="fill:rgb(129, 72, 132);transform:matrix(1, 0, 0, 1, 0, 0);;animation:none"></path></g>
<g></g></g><!-- [ldio] generated by https://loading.io --></svg>